<?xml version="1.0"?>
<svg width="640" height="480" xmlns="http://www.w3.org/2000/svg" xmlns:svg="http://www.w3.org/2000/svg" xmlns:xlink="http://www.w3.org/1999/xlink">
 <!-- Created with SVG-edit - https://github.com/SVG-Edit/svgedit-->
 <defs>
  <symbol id="svg_2" viewBox="0 0 456.272 456.272" x="0px" xmlns="http://www.w3.org/2000/svg" xmlns:xlink="http://www.w3.org/1999/xlink" y="0px">
   <path d="m441.272,184.656l-88.349,0l-64.313,-154.953c-3.176,-7.651 -11.955,-11.277 -19.604,-8.104c-7.651,3.176 -11.28,11.953 -8.104,19.604l59.54,143.453l-184.611,0l59.54,-143.453c3.176,-7.651 -0.453,-16.429 -8.104,-19.604c-7.648,-3.175 -16.429,0.453 -19.604,8.104l-64.313,154.953l-88.35,0c-8.284,0 -15,6.716 -15,15s6.716,15 15,15l9.02,0l29.408,160.833c6.393,34.96 36.828,60.334 72.367,60.334l204.684,0c35.54,0 65.974,-25.374 72.366,-60.334l29.408,-160.833l9.02,0c8.284,0 15,-6.716 15,-15s-6.717,-15 -15.001,-15zm-67.939,185.436c-3.786,20.704 -21.809,35.73 -42.855,35.73l-204.684,0c-21.046,0 -39.07,-15.026 -42.856,-35.73l-28.292,-154.727l346.979,0l-28.292,154.727z"/>
   <g/>
   <g/>
   <g/>
   <g/>
   <g/>
   <g/>
   <g/>
   <g/>
   <g/>
   <g/>
   <g/>
   <g/>
   <g/>
   <g/>
   <g/>
  </symbol>
 </defs>
 <g class="layer">
  <title>Layer 1</title>
  <use fill="#ffffff" id="svg_3" transform="matrix(1.28745 0 0 1.02836 -72.2713 -12.6466)" x="-15.534562" xlink:href="#svg_2" y="1.944841"/>
  <g id="svg_4"/>
 </g>
</svg>